STARTFONT 2.1
COMMENT Exported by Fony v1.4.7
FONT KAP 140 20p bold
SIZE 26 96 96
FONTBOUNDINGBOX 25 25 0 -2
STARTPROPERTIES 6
COPYRIGHT "CCrawford 2025"
RESOLUTION_X 96
RESOLUTION_Y 96
FONT_ASCENT 24
FONT_DESCENT 2
DEFAULT_CHAR 0
ENDPROPERTIES
CHARS 96
STARTCHAR 032
ENCODING 32
SWIDTH 1152 0
DWIDTH 16 0
BBX 0 0 0 0
BITMAP
ENDCHAR
STARTCHAR 033
ENCODING 33
SWIDTH 1800 0
DWIDTH 25 0
BBX 14 6 10 1
BITMAP
9718
94A4
F4A4
973C
9424
9424
ENDCHAR
STARTCHAR 034
ENCODING 34
SWIDTH 720 0
DWIDTH 10 0
BBX 8 6 1 13
BITMAP
F7
82
82
F2
82
82
ENDCHAR
STARTCHAR 035
ENCODING 35
SWIDTH 1800 0
DWIDTH 25 0
BBX 23 6 1 13
BITMAP
643DCE
942124
943924
F421C4
942144
97BD24
ENDCHAR
STARTCHAR 036
ENCODING 36
SWIDTH 360 0
DWIDTH 5 0
BBX 1 1 2 19
BITMAP
80
ENDCHAR
STARTCHAR 037
ENCODING 37
SWIDTH 576 0
DWIDTH 8 0
BBX 6 20 1 0
BITMAP
30
30
78
78
FC
00
00
70
48
48
70
40
40
00
F8
20
20
20
20
20
ENDCHAR
STARTCHAR 038
ENCODING 38
SWIDTH 576 0
DWIDTH 8 0
BBX 6 20 1 0
BITMAP
70
48
48
70
40
40
00
F8
20
20
20
20
20
00
00
FC
78
78
30
30
ENDCHAR
STARTCHAR 039
ENCODING 39
SWIDTH 1152 0
DWIDTH 16 0
BBX 0 0 0 0
BITMAP
ENDCHAR
STARTCHAR 040
ENCODING 40
SWIDTH 360 0
DWIDTH 5 0
BBX 1 1 2 21
BITMAP
80
ENDCHAR
STARTCHAR 041
ENCODING 41
SWIDTH 1152 0
DWIDTH 16 0
BBX 0 0 0 0
BITMAP
ENDCHAR
STARTCHAR 042
ENCODING 42
SWIDTH 360 0
DWIDTH 5 0
BBX 1 8 2 12
BITMAP
80
80
80
80
80
80
00
80
ENDCHAR
STARTCHAR 043
ENCODING 43
SWIDTH 1152 0
DWIDTH 16 0
BBX 0 0 0 0
BITMAP
ENDCHAR
STARTCHAR 044
ENCODING 44
SWIDTH 144 0
DWIDTH 2 0
BBX 2 5 0 -2
BITMAP
C0
C0
C0
40
40
ENDCHAR
STARTCHAR 045
ENCODING 45
SWIDTH 1296 0
DWIDTH 18 0
BBX 10 3 4 10
BITMAP
7F80
FFC0
7F80
ENDCHAR
STARTCHAR 046
ENCODING 46
SWIDTH 144 0
DWIDTH 2 0
BBX 2 2 0 0
BITMAP
C0
C0
ENDCHAR
STARTCHAR 047
ENCODING 47
SWIDTH 360 0
DWIDTH 5 0
BBX 1 8 2 12
BITMAP
80
80
80
80
80
80
00
80
ENDCHAR
STARTCHAR 048
ENCODING 48
SWIDTH 1296 0
DWIDTH 18 0
BBX 14 23 2 0
BITMAP
7FF8
3FF0
9FE4
C00C
E01C
E01C
E01C
E01C
E01C
C00C
8004
0000
8004
C00C
E01C
E01C
E01C
E01C
E01C
C00C
9FE4
3FF0
7FF8
ENDCHAR
STARTCHAR 049
ENCODING 49
SWIDTH 1296 0
DWIDTH 18 0
BBX 3 19 13 2
BITMAP
20
60
E0
E0
E0
E0
E0
60
20
00
20
60
E0
E0
E0
E0
E0
60
20
ENDCHAR
STARTCHAR 050
ENCODING 50
SWIDTH 1296 0
DWIDTH 18 0
BBX 14 23 2 0
BITMAP
7FF8
3FF0
1FE4
000C
001C
001C
001C
001C
001C
000C
1FE4
3FF0
9FE0
C000
E000
E000
E000
E000
E000
C000
9FE0
3FF0
7FF8
ENDCHAR
STARTCHAR 051
ENCODING 51
SWIDTH 1296 0
DWIDTH 18 0
BBX 13 23 3 0
BITMAP
FFF0
7FE0
3FC8
0018
0038
0038
0038
0038
0038
0018
3FC8
7FE0
3FC8
0018
0038
0038
0038
0038
0038
0018
3FC8
7FE0
FFF0
ENDCHAR
STARTCHAR 052
ENCODING 52
SWIDTH 1296 0
DWIDTH 18 0
BBX 14 19 2 2
BITMAP
8004
C00C
E01C
E01C
E01C
E01C
E01C
C00C
9FE4
3FF0
1FE4
000C
001C
001C
001C
001C
001C
000C
0004
ENDCHAR
STARTCHAR 053
ENCODING 53
SWIDTH 1296 0
DWIDTH 18 0
BBX 14 23 2 0
BITMAP
7FF8
3FF0
9FE0
C000
E000
E000
E000
E000
E000
C000
9FE0
3FF0
1FE4
000C
001C
001C
001C
001C
001C
000C
1FE4
3FF0
7FF8
ENDCHAR
STARTCHAR 054
ENCODING 54
SWIDTH 1296 0
DWIDTH 18 0
BBX 14 23 2 0
BITMAP
7FF8
3FF0
9FE0
C000
E000
E000
E000
E000
E000
C000
9FE0
3FF0
9FE4
C00C
E01C
E01C
E01C
E01C
E01C
C00C
9FE4
3FF0
7FF8
ENDCHAR
STARTCHAR 055
ENCODING 55
SWIDTH 1296 0
DWIDTH 18 0
BBX 13 21 3 2
BITMAP
FFF0
7FE0
3FC8
0018
0038
0038
0038
0038
0038
0018
0008
0000
0008
0018
0038
0038
0038
0038
0038
0018
0008
ENDCHAR
STARTCHAR 056
ENCODING 56
SWIDTH 1296 0
DWIDTH 18 0
BBX 14 23 2 0
BITMAP
7FF8
3FF0
9FE4
C00C
E01C
E01C
E01C
E01C
E01C
C00C
9FE4
3FF0
9FE4
C00C
E01C
E01C
E01C
E01C
E01C
C00C
9FE4
3FF0
7FF8
ENDCHAR
STARTCHAR 057
ENCODING 57
SWIDTH 1296 0
DWIDTH 18 0
BBX 14 23 2 0
BITMAP
7FF8
3FF0
9FE4
C00C
E01C
E01C
E01C
E01C
E01C
C00C
9FE4
3FF0
1FE4
000C
001C
001C
001C
001C
001C
000C
1FE4
3FF0
7FF8
ENDCHAR
STARTCHAR 058
ENCODING 58
SWIDTH 1296 0
DWIDTH 18 0
BBX 14 23 2 0
BITMAP
7FF8
3FF0
9FE4
D80C
EC1C
EC1C
EE1C
E61C
E31C
C30C
BFF4
7FF8
BFF4
C18C
E19C
E1DC
E0DC
E0DC
E07C
C06C
9FE4
3FF0
7FF8
ENDCHAR
STARTCHAR 059
ENCODING 59
SWIDTH 1296 0
DWIDTH 18 0
BBX 14 23 2 0
BITMAP
7FF8
3FF0
9FE4
C00C
E39C
E39C
E39C
E39C
E39C
C00C
9FE4
3FF0
9FE4
C00C
E39C
E39C
E39C
E39C
E39C
C00C
9FE4
3FF0
7FF8
ENDCHAR
STARTCHAR 060
ENCODING 60
SWIDTH 360 0
DWIDTH 5 0
BBX 1 2 2 18
BITMAP
80
80
ENDCHAR
STARTCHAR 061
ENCODING 61
SWIDTH 360 0
DWIDTH 5 0
BBX 1 1 2 14
BITMAP
80
ENDCHAR
STARTCHAR 062
ENCODING 62
SWIDTH 360 0
DWIDTH 5 0
BBX 1 2 2 12
BITMAP
80
80
ENDCHAR
STARTCHAR 063
ENCODING 63
SWIDTH 360 0
DWIDTH 5 0
BBX 1 5 2 14
BITMAP
80
80
80
80
80
ENDCHAR
STARTCHAR 064
ENCODING 64
SWIDTH 360 0
DWIDTH 5 0
BBX 1 6 2 12
BITMAP
80
80
80
80
80
80
ENDCHAR
STARTCHAR 065
ENCODING 65
SWIDTH 1296 0
DWIDTH 18 0
BBX 14 21 2 2
BITMAP
7FF8
3FF0
9FE4
C00C
E01C
E01C
E01C
E01C
E01C
C00C
9FE4
3FF0
9FE4
C00C
E01C
E01C
E01C
E01C
E01C
C00C
8004
ENDCHAR
STARTCHAR 066
ENCODING 66
SWIDTH 1296 0
DWIDTH 18 0
BBX 14 23 2 0
BITMAP
7FF8
3FF0
9FE4
C00C
E01C
E01C
E01C
E01C
E01C
C00C
9FE4
3FF0
9FE4
C00C
E01C
E01C
E01C
E01C
E01C
C00C
9FE4
3FF0
7FF8
ENDCHAR
STARTCHAR 067
ENCODING 67
SWIDTH 1296 0
DWIDTH 18 0
BBX 13 23 2 0
BITMAP
7FF8
3FF0
9FE0
C000
E000
E000
E000
E000
E000
C000
8000
0000
8000
C000
E000
E000
E000
E000
E000
C000
9FE0
3FF0
7FF8
ENDCHAR
STARTCHAR 068
ENCODING 68
SWIDTH 1296 0
DWIDTH 18 0
BBX 10 19 2 2
BITMAP
8000
D800
EE00
E700
E380
E180
E1C0
C0C0
8000
0000
8000
C0C0
E1C0
E180
E380
E700
EE00
D800
8000
ENDCHAR
STARTCHAR 069
ENCODING 69
SWIDTH 1296 0
DWIDTH 18 0
BBX 13 23 2 0
BITMAP
7FF8
3FF0
9FE0
C000
E000
E000
E000
E000
E000
C000
9FE0
3FF0
9FE0
C000
E000
E000
E000
E000
E000
C000
9FE0
3FF0
7FF8
ENDCHAR
STARTCHAR 070
ENCODING 70
SWIDTH 1296 0
DWIDTH 18 0
BBX 13 21 2 2
BITMAP
7FF8
3FF0
9FE0
C000
E000
E000
E000
E000
E000
C000
9FE0
3FF0
9FE0
C000
E000
E000
E000
E000
E000
C000
8000
ENDCHAR
STARTCHAR 071
ENCODING 71
SWIDTH 1296 0
DWIDTH 18 0
BBX 14 23 2 0
BITMAP
7FF8
3FF0
9FE0
C000
E000
E000
E000
E000
E000
C000
80E0
01F0
80E4
C00C
E01C
E01C
E01C
E01C
E01C
C00C
9FE4
3FF0
7FF8
ENDCHAR
STARTCHAR 072
ENCODING 72
SWIDTH 1296 0
DWIDTH 18 0
BBX 14 19 2 2
BITMAP
8004
C00C
E01C
E01C
E01C
E01C
E01C
C00C
9FE4
3FF0
9FE4
C00C
E01C
E01C
E01C
E01C
E01C
C00C
8004
ENDCHAR
STARTCHAR 073
ENCODING 73
SWIDTH 1296 0
DWIDTH 18 0
BBX 12 23 3 0
BITMAP
FFF0
7FE0
3FC0
0700
0700
0700
0700
0700
0700
0700
0000
0000
0000
0700
0700
0700
0700
0700
0700
0700
3FC0
7FE0
FFF0
ENDCHAR
STARTCHAR 074
ENCODING 74
SWIDTH 1296 0
DWIDTH 18 0
BBX 12 23 3 0
BITMAP
FFF0
7FE0
3FC0
0700
0700
0700
0700
0700
0700
0700
0000
0000
0000
0700
0700
0700
0700
0700
0700
0700
3700
7A00
FC00
ENDCHAR
STARTCHAR 075
ENCODING 75
SWIDTH 1296 0
DWIDTH 18 0
BBX 9 19 2 2
BITMAP
8000
C180
E380
E300
E600
EE00
EC00
D800
8000
0000
8000
D800
EC00
EE00
E700
E380
E180
C180
8000
ENDCHAR
STARTCHAR 076
ENCODING 76
SWIDTH 1296 0
DWIDTH 18 0
BBX 13 21 2 0
BITMAP
8000
C000
E000
E000
E000
E000
E000
C000
8000
0000
8000
C000
E000
E000
E000
E000
E000
C000
9FE0
3FF0
7FF8
ENDCHAR
STARTCHAR 077
ENCODING 77
SWIDTH 1296 0
DWIDTH 18 0
BBX 14 21 2 2
BITMAP
7FF8
3FF0
9FE4
C70C
E71C
E71C
E71C
E71C
E71C
C70C
8004
0000
8004
C00C
E01C
E01C
E01C
E01C
E01C
C00C
8004
ENDCHAR
STARTCHAR 078
ENCODING 78
SWIDTH 1296 0
DWIDTH 18 0
BBX 14 19 2 2
BITMAP
8004
D80C
EC1C
EC1C
EE1C
E61C
E71C
C30C
8004
0000
8004
C18C
E19C
E1DC
E0DC
E0FC
E07C
C03C
8004
ENDCHAR
STARTCHAR 079
ENCODING 79
SWIDTH 1296 0
DWIDTH 18 0
BBX 14 23 2 0
BITMAP
7FF8
3FF0
9FE4
C00C
E01C
E01C
E01C
E01C
E01C
C00C
8004
0000
8004
C00C
E01C
E01C
E01C
E01C
E01C
C00C
9FE4
3FF0
7FF8
ENDCHAR
STARTCHAR 080
ENCODING 80
SWIDTH 1296 0
DWIDTH 18 0
BBX 14 21 2 2
BITMAP
7FF8
3FF0
9FE4
C00C
E01C
E01C
E01C
E01C
E01C
C00C
9FE4
3FF0
9FE0
C000
E000
E000
E000
E000
E000
C000
8000
ENDCHAR
STARTCHAR 081
ENCODING 81
SWIDTH 1296 0
DWIDTH 18 0
BBX 14 23 2 0
BITMAP
7FF8
3FF0
9FE4
C00C
E01C
E01C
E01C
E01C
E01C
C00C
8004
0000
8004
C18C
E19C
E1DC
E0DC
E0FC
E07C
C03C
9FE4
3FF0
7FF8
ENDCHAR
STARTCHAR 082
ENCODING 82
SWIDTH 1296 0
DWIDTH 18 0
BBX 14 21 2 2
BITMAP
7FF8
3FF0
9FE4
C00C
E01C
E01C
E01C
E01C
E01C
C00C
9CE4
3FF0
9CE0
C180
E180
E1C0
E0C0
E0E0
E060
C030
8000
ENDCHAR
STARTCHAR 083
ENCODING 83
SWIDTH 1296 0
DWIDTH 18 0
BBX 14 23 2 0
BITMAP
7FF8
3FF0
9FE0
C000
E000
E000
E000
E000
E000
C000
9FE0
3FF0
1FE4
000C
001C
001C
001C
001C
001C
000C
1FE4
3FF0
7FF8
ENDCHAR
STARTCHAR 084
ENCODING 84
SWIDTH 1296 0
DWIDTH 18 0
BBX 12 19 3 4
BITMAP
FFF0
7FE0
3FC0
0000
0700
0700
0700
0700
0700
0700
0000
0000
0000
0700
0700
0700
0700
0700
0700
ENDCHAR
STARTCHAR 085
ENCODING 85
SWIDTH 1296 0
DWIDTH 18 0
BBX 14 21 2 0
BITMAP
8004
C00C
E01C
E01C
E01C
E01C
E01C
C00C
8004
0000
8004
C00C
E01C
E01C
E01C
E01C
E01C
C00C
9FE4
3FF0
7FF8
ENDCHAR
STARTCHAR 086
ENCODING 86
SWIDTH 1296 0
DWIDTH 18 0
BBX 11 20 5 1
BITMAP
C020
C060
60E0
60E0
70E0
30E0
38E0
1860
0020
0000
0020
0C60
0CE0
0EE0
06E0
07E0
03E0
01E0
0060
0020
ENDCHAR
STARTCHAR 087
ENCODING 87
SWIDTH 1296 0
DWIDTH 18 0
BBX 14 21 2 0
BITMAP
8004
C00C
E01C
E01C
E01C
E01C
E01C
C00C
8004
0000
8004
C38C
E39C
E39C
E39C
E39C
E39C
C00C
9FE4
3FF0
7FF8
ENDCHAR
STARTCHAR 088
ENCODING 88
SWIDTH 1296 0
DWIDTH 18 0
BBX 14 23 2 0
BITMAP
7FF8
3FF0
9FE4
C00C
E39C
E39C
E39C
E39C
E39C
C00C
9FE4
3FF0
9FE4
C00C
E39C
E39C
E39C
E39C
E39C
C00C
9FE4
3FF0
7FF8
ENDCHAR
STARTCHAR 089
ENCODING 89
SWIDTH 1296 0
DWIDTH 18 0
BBX 14 18 2 3
BITMAP
8004
C00C
E01C
E01C
E01C
E01C
E01C
C00C
9FE4
3FF0
1FE0
0000
0380
0380
0380
0380
0380
0380
ENDCHAR
STARTCHAR 090
ENCODING 90
SWIDTH 1296 0
DWIDTH 18 0
BBX 12 23 3 0
BITMAP
FFF0
7FE0
3FC0
00C0
0180
0180
0380
0300
0700
0600
0000
0000
0000
0C00
0C00
1C00
1800
3800
7000
6000
3FC0
7FE0
FFF0
ENDCHAR
STARTCHAR 091
ENCODING 91
SWIDTH 1224 0
DWIDTH 17 0
BBX 15 13 1 10
BITMAP
7FF8
3FF2
8006
C006
CCE6
D296
D296
DEE6
D286
D286
C006
9FF2
3FF8
ENDCHAR
STARTCHAR 092
ENCODING 92
SWIDTH 1152 0
DWIDTH 16 0
BBX 0 0 0 0
BITMAP
ENDCHAR
STARTCHAR 093
ENCODING 93
SWIDTH 504 0
DWIDTH 7 0
BBX 5 22 1 0
BITMAP
70
88
88
F8
88
88
88
00
F0
88
88
F0
A0
90
88
00
88
D8
A8
A8
88
88
ENDCHAR
STARTCHAR 094
ENCODING 94
SWIDTH 792 0
DWIDTH 11 0
BBX 9 6 1 2
BITMAP
9300
9480
F400
9580
9480
9300
ENDCHAR
STARTCHAR 095
ENCODING 95
SWIDTH 1296 0
DWIDTH 18 0
BBX 14 23 2 0
BITMAP
7FF8
3FF0
9FE4
D80C
EE1C
E71C
E39C
E19C
E1DC
C0CC
BFF4
7FF8
BFF4
C0CC
E1DC
E19C
E39C
E71C
EE1C
D80C
9FE4
3FF0
7FF8
ENDCHAR
STARTCHAR 096
ENCODING 96
SWIDTH 1152 0
DWIDTH 16 0
BBX 0 0 0 0
BITMAP
ENDCHAR
STARTCHAR 097
ENCODING 97
SWIDTH 360 0
DWIDTH 5 0
BBX 1 3 2 12
BITMAP
80
80
80
ENDCHAR
STARTCHAR 098
ENCODING 98
SWIDTH 360 0
DWIDTH 5 0
BBX 1 3 2 12
BITMAP
80
80
80
ENDCHAR
STARTCHAR 099
ENCODING 99
SWIDTH 360 0
DWIDTH 5 0
BBX 1 1 2 15
BITMAP
80
ENDCHAR
STARTCHAR 100
ENCODING 100
SWIDTH 360 0
DWIDTH 5 0
BBX 1 8 2 12
BITMAP
80
80
80
80
80
80
80
80
ENDCHAR
STARTCHAR 101
ENCODING 101
SWIDTH 360 0
DWIDTH 5 0
BBX 1 4 2 12
BITMAP
80
80
80
80
ENDCHAR
STARTCHAR 102
ENCODING 102
SWIDTH 360 0
DWIDTH 5 0
BBX 1 1 2 19
BITMAP
80
ENDCHAR
STARTCHAR 103
ENCODING 103
SWIDTH 360 0
DWIDTH 5 0
BBX 1 4 2 12
BITMAP
80
80
80
80
ENDCHAR
STARTCHAR 104
ENCODING 104
SWIDTH 360 0
DWIDTH 5 0
BBX 1 3 2 12
BITMAP
80
80
80
ENDCHAR
STARTCHAR 105
ENCODING 105
SWIDTH 1152 0
DWIDTH 16 0
BBX 0 0 0 0
BITMAP
ENDCHAR
STARTCHAR 106
ENCODING 106
SWIDTH 1152 0
DWIDTH 16 0
BBX 0 0 0 0
BITMAP
ENDCHAR
STARTCHAR 107
ENCODING 107
SWIDTH 360 0
DWIDTH 5 0
BBX 1 2 2 14
BITMAP
80
80
ENDCHAR
STARTCHAR 108
ENCODING 108
SWIDTH 1152 0
DWIDTH 16 0
BBX 0 0 0 0
BITMAP
ENDCHAR
STARTCHAR 109
ENCODING 109
SWIDTH 360 0
DWIDTH 5 0
BBX 1 3 2 12
BITMAP
80
80
80
ENDCHAR
STARTCHAR 110
ENCODING 110
SWIDTH 360 0
DWIDTH 5 0
BBX 1 3 2 12
BITMAP
80
80
80
ENDCHAR
STARTCHAR 111
ENCODING 111
SWIDTH 360 0
DWIDTH 5 0
BBX 1 3 2 12
BITMAP
80
80
80
ENDCHAR
STARTCHAR 112
ENCODING 112
SWIDTH 360 0
DWIDTH 5 0
BBX 1 3 2 12
BITMAP
80
80
80
ENDCHAR
STARTCHAR 113
ENCODING 113
SWIDTH 360 0
DWIDTH 5 0
BBX 1 4 2 12
BITMAP
80
80
80
80
ENDCHAR
STARTCHAR 114
ENCODING 114
SWIDTH 360 0
DWIDTH 5 0
BBX 1 2 2 14
BITMAP
80
80
ENDCHAR
STARTCHAR 115
ENCODING 115
SWIDTH 360 0
DWIDTH 5 0
BBX 1 1 2 15
BITMAP
80
ENDCHAR
STARTCHAR 116
ENCODING 116
SWIDTH 1152 0
DWIDTH 16 0
BBX 0 0 0 0
BITMAP
ENDCHAR
STARTCHAR 117
ENCODING 117
SWIDTH 360 0
DWIDTH 5 0
BBX 1 4 2 12
BITMAP
80
80
80
80
ENDCHAR
STARTCHAR 118
ENCODING 118
SWIDTH 360 0
DWIDTH 5 0
BBX 1 4 2 12
BITMAP
80
80
80
80
ENDCHAR
STARTCHAR 119
ENCODING 119
SWIDTH 360 0
DWIDTH 5 0
BBX 1 4 2 12
BITMAP
80
80
80
80
ENDCHAR
STARTCHAR 120
ENCODING 120
SWIDTH 360 0
DWIDTH 5 0
BBX 1 3 2 13
BITMAP
80
80
80
ENDCHAR
STARTCHAR 121
ENCODING 121
SWIDTH 360 0
DWIDTH 5 0
BBX 1 4 2 12
BITMAP
80
80
80
80
ENDCHAR
STARTCHAR 122
ENCODING 122
SWIDTH 360 0
DWIDTH 5 0
BBX 1 3 2 13
BITMAP
80
80
80
ENDCHAR
STARTCHAR 123
ENCODING 123
SWIDTH 1296 0
DWIDTH 18 0
BBX 16 6 1 13
BITMAP
F391
825B
8255
F391
8211
8211
ENDCHAR
STARTCHAR 124
ENCODING 124
SWIDTH 1152 0
DWIDTH 16 0
BBX 0 0 0 0
BITMAP
ENDCHAR
STARTCHAR 125
ENCODING 125
SWIDTH 360 0
DWIDTH 5 0
BBX 1 1 2 12
BITMAP
80
ENDCHAR
STARTCHAR 126
ENCODING 126
SWIDTH 1296 0
DWIDTH 18 0
BBX 8 6 9 2
BITMAP
91
99
95
93
93
91
ENDCHAR
STARTCHAR 127
ENCODING 127
SWIDTH 1152 0
DWIDTH 16 0
BBX 0 0 0 0
BITMAP
ENDCHAR
ENDFONT
